<?xml version="1.0" encoding="UTF-8" standalone="no"?>
<!DOCTYPE svg PUBLIC "-//W3C//DTD SVG 1.1//EN" "http://www.w3.org/Graphics/SVG/1.1/DTD/svg11.dtd">
<svg version="1.1" xmlns="http://www.w3.org/2000/svg" xmlns:xlink="http://www.w3.org/1999/xlink" preserveAspectRatio="xMidYMid meet" viewBox="0 0 640 640" width="640" height="640"><defs><path d="M403.49 195.06C478.57 238.4 504.29 334.41 460.94 409.49C417.6 484.56 321.59 510.29 246.52 466.94C171.44 423.59 145.7 327.59 189.06 252.51C232.41 177.44 328.42 151.71 403.49 195.06ZM433.75 393.79C468.43 333.73 447.85 256.92 387.79 222.25C327.73 187.57 250.93 208.15 216.25 268.21C181.57 328.27 202.16 405.07 262.21 439.74C322.27 474.42 399.08 453.85 433.75 393.79ZM325 290.41C329.02 290.41 333.03 291.94 336.1 295.01C340.54 299.45 376.06 334.96 380.5 339.4C386.63 345.53 386.63 355.48 380.5 361.6C380.5 361.6 380.5 361.6 380.5 361.6C374.37 367.73 364.43 367.73 358.3 361.6C356.08 359.38 344.98 348.28 325 328.3C305.03 348.28 293.93 359.38 291.71 361.6C285.58 367.73 275.64 367.73 269.51 361.6C269.51 361.6 269.51 361.6 269.51 361.6C263.38 355.48 263.38 345.53 269.51 339.4C272.47 336.44 287.27 321.65 313.91 295.01C318.62 291.94 322.32 290.41 325 290.41Z" id="j3ddHyK6ef"></path></defs><g><g><g><use xlink:href="#j3ddHyK6ef" opacity="1" fill="#000000" fill-opacity="1"></use><use xlink:href="#j3ddHyK6ef" opacity="1" fill="#000000" fill-opacity="1"></use><use xlink:href="#j3ddHyK6ef" opacity="1" fill="#e3b873" fill-opacity="1"></use></g></g></g></svg>